<?xml version="1.0" encoding="UTF-8"?>
<svg id="Layer_2" data-name="Layer 2" xmlns="http://www.w3.org/2000/svg" viewBox="0 0 105.62 43.61">
  <defs>
    <style>
      .cls-1 {
        fill-rule: evenodd;
      }

      .cls-1, .cls-2 {
        fill: #202033;
        stroke-width: 0px;
      }
    </style>
  </defs>
  <g id="Layer_1-2" data-name="Layer 1">
    <g>
      <g>
        <path class="cls-1" d="m30.47,14.15c-.53,1.05-1.34,1.85-2.08,2.73,4.55,1.73,7.78,6.12,7.78,11.27,0,6.65-5.4,12.06-12.05,12.06s-12.06-5.4-12.06-12.05c0-6.09,4.52-11.13,10.39-11.94.04-.26.1-.52.17-.8.26-.93.73-1.71,1.02-2.58-7.71.24-13.98,6.13-14.81,13.74H1.69c-.94,0-1.69.77-1.69,1.71s.75,1.7,1.69,1.7h7.15c.84,7.61,7.36,13.61,15.29,13.61,8.49,0,15.37-6.94,15.37-15.43,0-6.23-3.7-11.61-9.03-14.02Z"/>
        <path class="cls-1" d="m24.4,36.25c4.51-.14,8.12-3.85,8.12-8.39,0-3.63-2.29-6.72-5.52-7.89,1.13,2.84.32,6.04-1.93,8.69-2.01,2.36-2.59,5.25-.67,7.59Z"/>
        <path class="cls-1" d="m15.73,27.85c0,3.62,2.29,6.72,5.52,7.89-1.13-2.85-.32-6.04,1.93-8.7,2.01-2.36,2.59-5.25.67-7.59-4.51.15-8.12,3.85-8.12,8.4Z"/>
        <path class="cls-1" d="m25.73,19.58c-1.76-4.73,4.76-5.19,2.4-9.64-2.36-4.45,2.74-5.82-.18-9.94,1.76,4.73-4.76,5.19-2.4,9.64,2.37,4.45-2.74,5.82.18,9.94Z"/>
      </g>
      <g>
        <path class="cls-2" d="m54.27,15.26c.53.17.98.51,1.36,1.02.38.51.56,1.07.56,1.7,0,1.08-.4,1.91-1.19,2.5-.79.59-1.87.89-3.24.89h-4.1v-11.63h3.76c1.3,0,2.35.28,3.13.84.8.57,1.19,1.38,1.19,2.42,0,.51-.14.96-.41,1.36-.27.4-.63.7-1.07.9Zm-4.23-3.54v2.86h1.49c.38,0,.69-.03.94-.1.52-.19.78-.62.78-1.28,0-.47-.15-.84-.44-1.1s-.69-.39-1.21-.39h-1.55Zm2,4.54h-2v3.12h1.84c.53,0,.95-.14,1.28-.42.32-.28.48-.66.48-1.15s-.15-.86-.44-1.14c-.3-.27-.68-.41-1.15-.41Z"/>
        <path class="cls-2" d="m67.62,19.28v2.08h-7.72v-11.63h7.48v2.08h-4.99v2.65h4.23v2h-4.23v2.81h5.23Z"/>
        <path class="cls-2" d="m72.52,21.36h-2.6l5.64-11.8h.1l5.65,11.8h-2.6l-.94-2.05h-4.34l-.9,2.05Zm1.66-3.79h2.84c-.65-1.47-1.11-2.63-1.4-3.46l-.6,1.45c-.41.99-.69,1.66-.84,2Z"/>
        <path class="cls-2" d="m93.99,9.73v11.8h-.08l-6.38-6.12-.76-.66v6.6h-2.44v-11.8h.1l6.36,6.12.74.66v-6.6h2.45Z"/>
        <path class="cls-2" d="m101.29,21.59c-1.29,0-2.44-.22-3.46-.66v-2.39c.94.5,1.91.78,2.92.84.42.02.76,0,1.03-.06.94-.14,1.4-.48,1.4-1.03,0-.36-.16-.66-.49-.9-.33-.25-.93-.53-1.8-.86-1.1-.4-1.92-.87-2.45-1.4-.52-.53-.78-1.26-.78-2.21,0-1.02.39-1.84,1.16-2.45.76-.62,1.78-.94,3.05-.94,1.15,0,2.16.19,3.04.58v2.29c-.8-.47-1.74-.71-2.84-.71-.6,0-1.08.11-1.44.33-.36.22-.53.51-.53.88,0,.33.17.63.51.9s.91.55,1.7.85c1.13.44,1.96.93,2.49,1.45.54.52.81,1.23.81,2.15,0,1.06-.38,1.88-1.14,2.47-.76.59-1.82.89-3.19.89Z"/>
        <path class="cls-2" d="m54.43,34.89h2.07c.12,1.49-.16,2.75-.82,3.78l1.99,2.07h-2.65l-.71-.74c-.84.65-1.87.97-3.1.97-1.39,0-2.47-.31-3.23-.92-.75-.62-1.13-1.4-1.13-2.33,0-1.23.75-2.26,2.26-3.08-.43-.46-.74-.9-.93-1.32s-.28-.91-.28-1.47c0-.78.32-1.46.95-2.07.63-.59,1.42-.89,2.34-.89s1.66.29,2.31.87c.65.56.97,1.23.97,2,0,1.41-.78,2.49-2.33,3.23l1.97,2.03c.27-.62.38-1.33.32-2.13Zm-1.58,3.62l-2.54-2.62c-.81.43-1.21.97-1.21,1.61,0,.45.19.82.58,1.11.39.29.9.44,1.53.44s1.17-.18,1.63-.55Zm-2.89-6.54c0,.3.07.57.2.8.13.23.37.54.72.93,1.01-.53,1.52-1.1,1.52-1.73,0-.33-.12-.61-.35-.84-.23-.23-.52-.34-.86-.34s-.64.11-.87.34c-.24.23-.35.51-.35.84Z"/>
        <path class="cls-2" d="m74.11,29.69v2.28c-1.06-.54-2.13-.81-3.21-.81-1.15,0-2.08.36-2.79,1.08-.7.73-1.05,1.63-1.05,2.68s.34,1.96,1.03,2.68c.69.72,1.6,1.08,2.73,1.08,1.2,0,2.32-.27,3.38-.81v2.31c-.96.52-2.14.78-3.55.78-1.74,0-3.19-.58-4.34-1.73-1.15-1.17-1.73-2.61-1.73-4.31s.58-3.15,1.74-4.3c1.16-1.16,2.63-1.74,4.41-1.74,1.27,0,2.4.27,3.39.81Z"/>
        <path class="cls-2" d="m77.05,34.92c0-1.68.58-3.11,1.73-4.28,1.16-1.17,2.62-1.76,4.36-1.76s3.18.59,4.34,1.76c1.16,1.16,1.74,2.59,1.74,4.28s-.58,3.15-1.74,4.31c-1.15,1.15-2.6,1.73-4.34,1.73s-3.19-.58-4.36-1.73c-1.15-1.17-1.73-2.61-1.73-4.31Zm2.5,0c0,1.06.34,1.95,1.02,2.68.68.72,1.53,1.08,2.57,1.08s1.89-.36,2.57-1.08c.68-.73,1.02-1.63,1.02-2.68s-.34-1.94-1.02-2.66c-.68-.73-1.53-1.1-2.57-1.1s-1.89.37-2.57,1.1c-.68.72-1.02,1.61-1.02,2.66Z"/>
        <path class="cls-2" d="m92.26,39.67c0-.4.12-.72.36-.95.24-.24.57-.36.98-.36s.73.12.98.36c.24.24.36.55.36.95s-.12.7-.37.94c-.25.24-.57.36-.97.36s-.74-.12-.98-.36c-.24-.24-.36-.55-.36-.94Z"/>
      </g>
    </g>
  </g>
</svg>