<?xml version="1.0" encoding="UTF-8"?>
<svg id="Layer_2" data-name="Layer 2" xmlns="http://www.w3.org/2000/svg" viewBox="0 0 158.6 42.64">
  <defs>
    <style>
      .cls-1 {
        fill: #666;
      }

      .cls-1, .cls-2 {
        stroke-width: 0px;
      }

      .cls-2 {
        fill: #292a2d;
      }
    </style>
  </defs>
  <g id="Layer_1-2" data-name="Layer 1">
    <g>
      <g>
        <path class="cls-2" d="m79.7,6.69v2.4c-1.11-.57-2.24-.85-3.38-.85-1.21,0-2.19.38-2.94,1.14-.74.77-1.1,1.71-1.1,2.82s.36,2.06,1.09,2.82c.73.76,1.68,1.14,2.87,1.14,1.26,0,2.44-.28,3.55-.85v2.43c-1.01.54-2.26.82-3.74.82-1.84,0-3.36-.61-4.57-1.82-1.21-1.23-1.82-2.75-1.82-4.54s.61-3.32,1.84-4.52c1.22-1.22,2.77-1.84,4.64-1.84,1.34,0,2.53.28,3.57.85Z"/>
        <path class="cls-2" d="m82.8,12.2c0-1.77.61-3.27,1.82-4.5,1.22-1.24,2.75-1.85,4.59-1.85s3.35.62,4.57,1.85c1.22,1.22,1.84,2.73,1.84,4.5s-.61,3.31-1.84,4.54c-1.21,1.21-2.74,1.82-4.57,1.82s-3.35-.61-4.59-1.82c-1.21-1.23-1.82-2.75-1.82-4.54Zm2.64,0c0,1.11.36,2.05,1.07,2.82.71.76,1.62,1.14,2.7,1.14s1.99-.38,2.7-1.14c.71-.77,1.07-1.71,1.07-2.82s-.36-2.05-1.07-2.8c-.71-.77-1.62-1.16-2.7-1.16s-1.99.39-2.7,1.16c-.71.76-1.07,1.69-1.07,2.8Z"/>
        <path class="cls-2" d="m106.92,6.08v2.19h-4.84v2.92h4.08v2.16h-4.08v4.96h-2.62V6.08h7.46Z"/>
        <path class="cls-2" d="m118.12,6.08v2.19h-4.85v2.92h4.08v2.16h-4.08v4.96h-2.62V6.08h7.46Z"/>
        <path class="cls-2" d="m129.99,16.12v2.19h-8.13V6.08h7.87v2.19h-5.25v2.79h4.45v2.11h-4.45v2.96h5.51Z"/>
        <path class="cls-2" d="m141.94,16.12v2.19h-8.13V6.08h7.87v2.19h-5.25v2.79h4.45v2.11h-4.45v2.96h5.51Z"/>
        <path class="cls-2" d="m73.5,38.95c-1.36,0-2.57-.23-3.64-.7v-2.52c.99.52,2.01.82,3.08.88.44.02.8,0,1.09-.07.99-.15,1.48-.51,1.48-1.09,0-.37-.17-.69-.52-.95-.35-.26-.98-.56-1.9-.9-1.16-.42-2.02-.91-2.58-1.48-.54-.56-.82-1.33-.82-2.33,0-1.08.41-1.94,1.22-2.58.8-.66,1.88-.99,3.21-.99,1.21,0,2.28.2,3.2.61v2.41c-.84-.5-1.84-.75-2.99-.75-.63,0-1.14.12-1.51.35-.37.23-.56.54-.56.93,0,.35.18.67.54.94.36.28.96.58,1.79.89,1.19.46,2.06.97,2.62,1.53.57.54.85,1.3.85,2.26,0,1.11-.4,1.98-1.2,2.6-.8.62-1.92.94-3.36.94Z"/>
        <path class="cls-2" d="m89.24,26.48h2.62v7.79c0,1.44-.45,2.58-1.36,3.43-.91.84-2.16,1.26-3.76,1.26s-2.85-.42-3.76-1.26c-.91-.85-1.36-1.99-1.36-3.43v-7.79h2.62v7.53c0,.81.22,1.43.65,1.88.44.45,1.05.67,1.84.67s1.42-.22,1.85-.66.65-1.07.65-1.89v-7.53Z"/>
        <path class="cls-2" d="m100.27,34.53h-1.36v4.18h-2.62v-12.24h3.98c1.45,0,2.6.35,3.44,1.05.84.7,1.27,1.69,1.27,2.98s-.42,2.27-1.27,2.98c-.84.7-1.99,1.05-3.44,1.05Zm.07-5.86h-1.43v3.65h1.5c.59,0,1.06-.16,1.4-.48s.52-.77.52-1.34-.18-1.04-.54-1.36-.84-.48-1.45-.48Z"/>
        <path class="cls-2" d="m112.56,34.53h-1.36v4.18h-2.62v-12.24h3.98c1.45,0,2.6.35,3.44,1.05.84.7,1.27,1.69,1.27,2.98s-.42,2.27-1.27,2.98c-.84.7-1.99,1.05-3.44,1.05Zm.07-5.86h-1.43v3.65h1.5c.59,0,1.06-.16,1.4-.48s.52-.77.52-1.34-.18-1.04-.54-1.36c-.36-.32-.84-.48-1.45-.48Z"/>
        <path class="cls-2" d="m128.2,36.52v2.19h-7.33v-12.24h2.62v10.05h4.71Z"/>
        <path class="cls-2" d="m134.41,26.48v12.24h-2.62v-12.24h2.62Z"/>
        <path class="cls-2" d="m147.14,36.52v2.19h-8.13v-12.24h7.87v2.19h-5.25v2.79h4.45v2.11h-4.45v2.96h5.51Z"/>
        <path class="cls-2" d="m154.04,38.95c-1.36,0-2.57-.23-3.64-.7v-2.52c.99.52,2.01.82,3.08.88.44.02.8,0,1.09-.07.99-.15,1.48-.51,1.48-1.09,0-.37-.17-.69-.52-.95s-.98-.56-1.9-.9c-1.16-.42-2.02-.91-2.58-1.48-.54-.56-.82-1.33-.82-2.33,0-1.08.41-1.94,1.22-2.58.8-.66,1.88-.99,3.21-.99,1.21,0,2.28.2,3.2.61v2.41c-.84-.5-1.84-.75-2.99-.75-.63,0-1.14.12-1.51.35-.37.23-.56.54-.56.93,0,.35.18.67.54.94.36.28.95.58,1.79.89,1.19.46,2.06.97,2.62,1.53.57.54.85,1.3.85,2.26,0,1.11-.4,1.98-1.2,2.6-.8.62-1.92.94-3.36.94Z"/>
      </g>
      <g>
        <path class="cls-1" d="m49.55,38.37H2.81c-1.55,0-2.81,1.26-2.81,2.81v1.46h52.36v-1.46c0-1.55-1.26-2.81-2.81-2.81Z"/>
        <path class="cls-1" d="m31.74,36.33c-.04.39-.17.75-.38,1.05h14.83v-9.92l-1.3-.24c-1.01-.19-1.91-.8-2.46-1.68-.37-.59-.57-1.27-.57-1.97v-1.43h-.6c-.27,0-.49-.22-.49-.49v-9.56h-7.56v1.25c0,1.83-1.49,3.33-3.33,3.33h-7.39c-1.83,0-3.33-1.49-3.33-3.33v-1.25H6.18v25.29h15.14c-.2-.3-.34-.66-.38-1.05l-1.15-12.7c-.01-.14.03-.28.13-.38.09-.1.23-.16.36-.16h12.12c.14,0,.27.06.37.16.09.1.14.24.13.38l-.25,2.77h.95c.65,0,1.25.29,1.65.79.41.5.56,1.15.42,1.78l-.66,3.06c-.21.97-1.08,1.68-2.08,1.68h-.95l-.24,2.62Zm-7.32-16.65c0,.27-.22.49-.49.49s-.49-.22-.49-.49v-1.44c0-.27.22-.49.49-.49s.49.22.49.49v1.44Zm2.26,1.48c0,.27-.22.49-.49.49s-.49-.22-.49-.49v-1.44c0-.27.22-.49.49-.49s.49.22.49.49v1.44Zm2.26-1.48c0,.27-.22.49-.49.49s-.49-.22-.49-.49v-1.44c0-.27.22-.49.49-.49s.49.22.49.49v1.44Z"/>
        <path class="cls-1" d="m34.04,31.82l.66-3.06c.07-.34-.01-.69-.23-.95-.22-.27-.54-.42-.88-.42h-1.04l-.48,5.33h.86c.53,0,1-.38,1.11-.9Z"/>
        <path class="cls-1" d="m19.65,11.1h30.35v-6.97c0-2.28-1.85-4.13-4.13-4.13H6.49C4.22,0,2.37,1.85,2.37,4.13v6.97h17.29Zm24.29-5.06h2.25v2.25h-2.25v-2.25Zm-5.44,0h2.25v2.25h-2.25v-2.25Zm-12.32-3.24c1.52,0,2.75,1.23,2.75,2.75s-1.23,2.75-2.75,2.75-2.75-1.23-2.75-2.75,1.23-2.75,2.75-2.75ZM7.16,1.81h6.52c.27,0,.49.22.49.49s-.22.49-.49.49h-6.52c-.27,0-.49-.22-.49-.49s.22-.49.49-.49Zm0,3.24h6.52c.27,0,.49.22.49.49s-.22.49-.49.49h-6.52c-.27,0-.49-.22-.49-.49s.22-.49.49-.49Zm0,3.24h6.52c.27,0,.49.22.49.49s-.22.49-.49.49h-6.52c-.27,0-.49-.22-.49-.49s.22-.49.49-.49Z"/>
        <path class="cls-1" d="m43.94,12.09v9.56c0,.27-.22.49-.49.49h-.6v1.43c0,.51.14,1.01.41,1.44.41.65,1.07,1.09,1.81,1.23l1.12.21v-14.37h-2.25Z"/>
        <path class="cls-1" d="m29.88,15.68c1.29,0,2.34-1.05,2.34-2.34v-1.25h-12.07v1.25c0,1.29,1.05,2.34,2.34,2.34h7.39Z"/>
        <polygon class="cls-1" points="42.95 21.16 42.95 12.09 41.75 12.09 41.75 21.16 42.35 21.16 42.95 21.16"/>
        <path class="cls-1" d="m49.49,28.08s.06,0,.09,0c.23,0,.44-.17.49-.4.05-.27-.13-.53-.4-.58l-2.5-.47-.99-.18v1.01l.99.18,2.32.43Z"/>
      </g>
    </g>
  </g>
</svg>